[Header]
FileType HTR
DataType HTRS
FileVersion 1
NumSegments 64
NumFrames 3
DataFrameRate 24
EulerRotationOrder ZYX
CalibrationUnits mm
RotationUnits Degrees
GlobalAxisofGravity Y
BoneLengthAxis Y
ScaleFactor 1.0
[SegmentNames&Hierarchy]
Hips	GLOBAL
Spine	Hips
Spine1	Spine
Spine2	Spine1
Neck	Spine2
Head	Neck
LeftEye	Head
RightEye	Head
LeftShoulder	Spine2
LeftArm	LeftShoulder
LeftForeArm	LeftArm
LeftHand	LeftForeArm
LeftHandThumb1	LeftHand
LeftHandThumb2	LeftHandThumb1
LeftHandThumb3	LeftHandThumb2
LeftHandThumb4	LeftHandThumb3
LeftHandIndex1	LeftHand
LeftHandIndex2	LeftHandIndex1
LeftHandIndex3	LeftHandIndex2
LeftHandIndex4	LeftHandIndex3
LeftHandMiddle1	LeftHand
LeftHandMiddle2	LeftHandMiddle1
LeftHandMiddle3	LeftHandMiddle2
LeftHandMiddle4	LeftHandMiddle3
LeftHandRing1	LeftHand
LeftHandRing2	LeftHandRing1
LeftHandRing3	LeftHandRing2
LeftHandRing4	LeftHandRing3
LeftHandPinky1	LeftHand
LeftHandPinky2	LeftHandPinky1
LeftHandPinky3	LeftHandPinky2
LeftHandPinky4	LeftHandPinky3
RightShoulder	Spine2
RightArm	RightShoulder
RightForeArm	RightArm
RightHand	RightForeArm
RightHandPinky1	RightHand
RightHandPinky2	RightHandPinky1
RightHandPinky3	RightHandPinky2
RightHandPinky4	RightHandPinky3
RightHandRing1	RightHand
RightHandRing2	RightHandRing1
RightHandRing3	RightHandRing2
RightHandRing4	RightHandRing3
RightHandMiddle1	RightHand
RightHandMiddle2	RightHandMiddle1
RightHandMiddle3	RightHandMiddle2
RightHandMiddle4	RightHandMiddle3
RightHandIndex1	RightHand
RightHandIndex2	RightHandIndex1
RightHandIndex3	RightHandIndex2
RightHandIndex4	RightHandIndex3
RightHandThumb1	RightHand
RightHandThumb2	RightHandThumb1
RightHandThumb3	RightHandThumb2
RightHandThumb4	RightHandThumb3
LeftUpLeg	Hips
LeftLeg	LeftUpLeg
LeftFoot	LeftLeg
LeftToeBase	LeftFoot
RightUpLeg	Hips
RightLeg	RightUpLeg
RightFoot	RightLeg
RightToeBase	RightFoot
[BasePosition]
Hips	0	0	0	0	0	0	1
Spine	0	0	0	0	0	0	1
Spine1	0	0	0	0	0	0	1
Spine2	0	0	0	0	0	0	1
Neck	0	0	0	0	0	0	1
Head	0	0	0	0	0	0	1
LeftEye	0	0	0	0	0	0	1
RightEye	0	0	0	0	0	0	1
LeftShoulder	0	0	0	0	0	0	1
LeftArm	0	0	0	0	0	0	1
LeftForeArm	0	0	0	0	0	0	1
LeftHand	0	0	0	0	0	0	1
LeftHandThumb1	0	0	0	0	0	0	1
LeftHandThumb2	0	0	0	0	0	0	1
LeftHandThumb3	0	0	0	0	0	0	1
LeftHandThumb4	0	0	0	0	0	0	1
LeftHandIndex1	0	0	0	0	0	0	1
LeftHandIndex2	0	0	0	0	0	0	1
LeftHandIndex3	0	0	0	0	0	0	1
LeftHandIndex4	0	0	0	0	0	0	1
LeftHandMiddle1	0	0	0	0	0	0	1
LeftHandMiddle2	0	0	0	0	0	0	1
LeftHandMiddle3	0	0	0	0	0	0	1
LeftHandMiddle4	0	0	0	0	0	0	1
LeftHandRing1	0	0	0	0	0	0	1
LeftHandRing2	0	0	0	0	0	0	1
LeftHandRing3	0	0	0	0	0	0	1
LeftHandRing4	0	0	0	0	0	0	1
LeftHandPinky1	0	0	0	0	0	0	1
LeftHandPinky2	0	0	0	0	0	0	1
LeftHandPinky3	0	0	0	0	0	0	1
LeftHandPinky4	0	0	0	0	0	0	1
RightShoulder	0	0	0	0	0	0	1
RightArm	0	0	0	0	0	0	1
RightForeArm	0	0	0	0	0	0	1
RightHand	0	0	0	0	0	0	1
RightHandPinky1	0	0	0	0	0	0	1
RightHandPinky2	0	0	0	0	0	0	1
RightHandPinky3	0	0	0	0	0	0	1
RightHandPinky4	0	0	0	0	0	0	1
RightHandRing1	0	0	0	0	0	0	1
RightHandRing2	0	0	0	0	0	0	1
RightHandRing3	0	0	0	0	0	0	1
RightHandRing4	0	0	0	0	0	0	1
RightHandMiddle1	0	0	0	0	0	0	1
RightHandMiddle2	0	0	0	0	0	0	1
RightHandMiddle3	0	0	0	0	0	0	1
RightHandMiddle4	0	0	0	0	0	0	1
RightHandIndex1	0	0	0	0	0	0	1
RightHandIndex2	0	0	0	0	0	0	1
RightHandIndex3	0	0	0	0	0	0	1
RightHandIndex4	0	0	0	0	0	0	1
RightHandThumb1	0	0	0	0	0	0	1
RightHandThumb2	0	0	0	0	0	0	1
RightHandThumb3	0	0	0	0	0	0	1
RightHandThumb4	0	0	0	0	0	0	1
LeftUpLeg	0	0	0	0	0	0	1
LeftLeg	0	0	0	0	0	0	1
LeftFoot	0	0	0	0	0	0	1
LeftToeBase	0	0	0	0	0	0	1
RightUpLeg	0	0	0	0	0	0	1
RightLeg	0	0	0	0	0	0	1
RightFoot	0	0	0	0	0	0	1
RightToeBase	0	0	0	0	0	0	1
[Hips]
1	6.098806858	1017.25293	13.35033321	-1.100025296	10.0431776	-4.743673801	1.0
2	8.914107323	1019.736938	81.38308716	0.2794055939	7.916617393	-3.248566389	1.0
3	12.20632362	1015.224548	150.6733093	1.64086473	4.60670805	-1.540212035	1.0
[Spine]
1	0	101.8159943	1.315000057	2.566610575	-0.9275283813	3.384038687	1.0
2	0	101.8159943	1.315000057	2.071342945	-0.2113171816	2.627454042	1.0
3	0	101.8159943	1.315000057	1.646225452	0.4870094657	1.812786341	1.0
[Spine1]
1	0	100.8349991	-10.00800037	1.623589039	-2.301938534	0.7803898454	1.0
2	0	100.8349991	-10.00800037	1.290982723	-0.9303479195	0.2014395595	1.0
3	0	100.8349991	-10.00800037	1.08004272	0.4570222497	-0.2852598727	1.0
[Spine2]
1	0	91	-13.73399925	-2.936023712	-2.269197464	0.3683923483	1.0
2	0	91	-13.73399925	-3.227747202	-0.9353384972	-0.2836464345	1.0
3	0	91	-13.73399925	-3.41219759	0.4233057499	-0.8286426663	1.0
[Neck]
1	0	166.7169952	-25.16200066	-3.348052263	-1.206889033	-0.9148350954	1.0
2	0	166.7169952	-25.16200066	-2.927602768	-1.350518465	-0.7416621447	1.0
3	0	166.7169952	-25.16200066	-3.234631777	-1.248174071	-1.185758233	1.0
[Head]
1	0	96.17900085	16.84999847	-1.373228669	-3.833070993	0.4014327228	1.0
2	0	96.17900085	16.84999847	-0.301373601	-4.372925282	0.9459466934	1.0
3	0	96.17900085	16.84999847	0.1209289208	-4.402110577	0.8698075414	1.0
[LeftEye]
1	30.6760006	64.09500122	92.83599854	0	0	0	1.0
2	30.6760006	64.09500122	92.83599854	0	0	0	1.0
3	30.6760006	64.09500122	92.83599854	0	0	0	1.0
[RightEye]
1	-30.6760006	64.09500122	92.83499908	0	0	0	1.0
2	-30.6760006	64.09500122	92.83499908	0	0	0	1.0
3	-30.6760006	64.09500122	92.83499908	0	0	0	1.0
[LeftShoulder]
1	45.70400238	109.4599991	-26.28000069	7.668215752	-21.15202332	0.1720601022	1.0
2	45.70400238	109.4599991	-26.28000069	7.791773319	-20.95953941	-1.004854798	1.0
3	45.70400238	109.4599991	-26.28000069	7.931371689	-18.36306381	-3.294766665	1.0
[LeftArm]
1	105.923996	-5.24600029	-22.32099915	-4.017138958	2.596051693	-77.00728607	1.0
2	105.923996	-5.24600029	-22.32099915	-7.9664464	6.792024136	-79.16137695	1.0
3	105.923996	-5.24600029	-22.32099915	-12.66513443	12.0163641	-79.39687347	1.0
[LeftForeArm]
1	278.414978	-0.0009999999311	0	-6.122399554e-06	-36.3051033	-0.0001923860546	1.0
2	278.414978	-0.0009999999311	0	8.778018127e-06	-32.47393799	-0.0002187218342	1.0
3	278.414978	-0.0009999999311	0	-7.677052963e-06	-32.09940338	-0.0001800957398	1.0
[LeftHand]
1	283.2879944	0	0	19.24929428	-20.59240723	-1.62630713	1.0
2	283.2879944	0	0	27.47628784	-9.475502968	-12.36708641	1.0
3	283.2879944	0	0	38.60917282	5.214623928	-22.07059479	1.0
[LeftHandThumb1]
1	24.6609993	-15.75	26.8239994	30.0141201	-2.569847584	22.37999725	1.0
2	24.6609993	-15.75	26.8239994	29.09998322	-3.048249245	26.84067535	1.0
3	24.6609993	-15.75	26.8239994	28.27711678	-3.525291204	31.42108727	1.0
[LeftHandThumb2]
1	32.29800034	-18.64699936	18.64699936	-12.77387333	15.47335148	-15.46434975	1.0
2	32.29800034	-18.64699936	18.64699936	-5.025781155	10.24534512	-14.83065987	1.0
3	32.29800034	-18.64699936	18.64699936	3.810023308	14.18397141	-13.57257748	1.0
[LeftHandThumb3]
1	26.52600098	-15.31499958	15.31499958	7.821384907	-11.30893612	-0.1487737447	1.0
2	26.52600098	-15.31499958	15.31499958	6.483938694	-20.97529221	-0.2932604551	1.0
3	26.52600098	-15.31499958	15.31499958	5.985566139	-26.10791206	-0.6904973388	1.0
[LeftHandThumb4]
1	19.54599953	-11.28499985	11.28499985	0	0	0	1.0
2	19.54599953	-11.28499985	11.28499985	0	0	0	1.0
3	19.54599953	-11.28499985	11.28499985	0	0	0	1.0
[LeftHandIndex1]
1	91.09299469	-5.170999527	22.60099792	0.5647582412	3.47128129	4.012434959	1.0
2	91.09299469	-5.170999527	22.60099792	1.808645725	4.144762993	0.1185772046	1.0
3	91.09299469	-5.170999527	22.60099792	3.417517185	4.256214142	-0.7907104492	1.0
[LeftHandIndex2]
1	36.76399994	0	0	-0.4580063224	2.429178715	-16.82152176	1.0
2	36.76399994	0	0	-0.467643708	2.450110912	-17.04794502	1.0
3	36.76399994	0	0	-0.4778759181	2.47207737	-17.28632164	1.0
[LeftHandIndex3]
1	28.83100128	0	0	-0.03218809515	0.1749838442	-3.850960255	1.0
2	28.83100128	0	0	-0.03375989199	0.1976547688	-4.076958656	1.0
3	28.83100128	0	0	-0.03551640734	0.2215167135	-4.314756393	1.0
[LeftHandIndex4]
1	23.92700005	0	0	0	0	0	1.0
2	23.92700005	0	0	0	0	0	1.0
3	23.92700005	0	0	0	0	0	1.0
[LeftHandMiddle1]
1	95.33399963	0	0	-1.590061545	7.474466801	-16.55465889	1.0
2	95.33399963	0	0	-1.828548551	8.801990509	-18.40299225	1.0
3	95.33399963	0	0	-1.789195299	9.480814934	-18.02757263	1.0
[LeftHandMiddle2]
1	36.98199844	0	0	-1.021115661	3.332187653	-27.11567688	1.0
2	36.98199844	0	0	-1.019521952	3.330045938	-27.08935738	1.0
3	36.98199844	0	0	-1.016622663	3.326123714	-27.04112244	1.0
[LeftHandMiddle3]
1	29.50900078	0	0	-0.2463653088	1.842948675	-15.98741245	1.0
2	29.50900078	0	0	-0.2457818538	1.841005325	-15.967062	1.0
3	29.50900078	0	0	-0.2445429265	1.836986542	-15.92492867	1.0
[LeftHandMiddle4]
1	28.3390007	0	0	0	0	0	1.0
2	28.3390007	0	0	0	0	0	1.0
3	28.3390007	0	0	0	0	0	1.0
[LeftHandRing1]
1	91.04499817	-0.4390000105	-18.65100098	-3.812392473	7.083380699	-34.57787323	1.0
2	91.04499817	-0.4390000105	-18.65100098	-4.115642071	7.399445534	-36.68067551	1.0
3	91.04499817	-0.4390000105	-18.65100098	-4.079289436	7.574987411	-36.34838867	1.0
[LeftHandRing2]
1	31.54000092	0	0	-0.1863548011	2.028474331	-17.1691761	1.0
2	31.54000092	0	0	-0.1813976467	2.009828329	-16.97466469	1.0
3	31.54000092	0	0	-0.180588305	2.0067451	-16.94257164	1.0
[LeftHandRing3]
1	29.37700081	0	0	0.02822150476	1.242087007	-12.58209705	1.0
2	29.37700081	0	0	0.03052968904	1.222760081	-12.38656139	1.0
3	29.37700081	0	0	0.03090962954	1.219606638	-12.35459423	1.0
[LeftHandRing4]
1	26.47500038	0	0	0	0	0	1.0
2	26.47500038	0	0	0	0	0	1.0
3	26.47500038	0	0	0	0	0	1.0
[LeftHandPinky1]
1	80.77799988	-4.887000084	-38.06099701	-4.025370121	13.38591576	-31.43857574	1.0
2	80.77799988	-4.887000084	-38.06099701	-4.170167446	14.32616901	-32.35552597	1.0
3	80.77799988	-4.887000084	-38.06099701	-4.04893446	14.16397858	-31.48937607	1.0
[LeftHandPinky2]
1	36	0	0	-0.8751853704	2.566592455	-29.11016273	1.0
2	36	0	0	-0.8744981289	2.565476656	-29.09718513	1.0
3	36	0	0	-0.8794592023	2.573332548	-29.19017792	1.0
[LeftHandPinky3]
1	21.14200211	0	0	-0.1047585309	1.525482535	-6.725169182	1.0
2	21.14200211	0	0	-0.1045022458	1.524220228	-6.712194443	1.0
3	21.14200211	0	0	-0.1063795164	1.533325911	-6.805012703	1.0
[LeftHandPinky4]
1	19.75699997	0	0	0	0	0	1.0
2	19.75699997	0	0	0	0	0	1.0
3	19.75699997	0	0	0	0	0	1.0
[RightShoulder]
1	-45.70000076	109.4620056	-26.28000069	-0.3600390851	5.303324223	5.340899944	1.0
2	-45.70000076	109.4620056	-26.28000069	-0.3404502273	5.711624622	5.04020834	1.0
3	-45.70000076	109.4620056	-26.28000069	-0.3463750482	7.14240694	3.106598377	1.0
[RightArm]
1	-105.9280014	-5.248000145	-22.32099915	3.870635986	-21.93056297	72.51187134	1.0
2	-105.9280014	-5.248000145	-22.32099915	2.331854582	-14.77183151	72.04047394	1.0
3	-105.9280014	-5.248000145	-22.32099915	1.631375432	-8.005093575	72.55344391	1.0
[RightForeArm]
1	-278.414978	0	0	1.170653923e-05	32.51657104	2.002042311e-05	1.0
2	-278.414978	0	0	7.59690829e-06	33.57367706	2.36055148e-05	1.0
3	-278.414978	0	0	6.871920846e-07	34.13512802	9.489072568e-07	1.0
[RightHand]
1	-283.2879944	0	0.0009999999311	26.15010834	5.791949749	7.29074192	1.0
2	-283.2879944	0	0.0009999999311	26.89180374	3.969599724	5.618597984	1.0
3	-283.2879944	0	0.0009999999311	25.60790253	2.851296902	5.012978077	1.0
[RightHandPinky1]
1	-80.76699829	-4.885000229	-38.06000137	-5.566514969	-8.98740387	45.47048569	1.0
2	-80.76699829	-4.885000229	-38.06000137	-5.613896847	-8.789516449	45.96833038	1.0
3	-80.76699829	-4.885000229	-38.06000137	-5.678246021	-8.466862679	46.68795776	1.0
[RightHandPinky2]
1	-36	0	0.0009999999311	-2.209456444	-4.03399992	49.10842133	1.0
2	-36	0	0.0009999999311	-2.211666346	-4.035707474	49.13636017	1.0
3	-36	0	0.0009999999311	-2.202961922	-4.028974533	49.02594376	1.0
[RightHandPinky3]
1	-21.14200211	0	0	-2.053724289	-1.617428541	43.30535889	1.0
2	-21.14200211	0	0	-2.055807114	-1.619298577	43.33319473	1.0
3	-21.14200211	0	0	-2.04758954	-1.611937404	43.22318268	1.0
[RightHandPinky4]
1	-19.75699997	0	0	0	0	0	1.0
2	-19.75699997	0	0	0	0	0	1.0
3	-19.75699997	0	0	0	0	0	1.0
[RightHandRing1]
1	-91.03599548	-0.4390000105	-18.65100098	-4.740531445	-7.355221272	41.21747208	1.0
2	-91.03599548	-0.4390000105	-18.65100098	-4.780115128	-7.316082001	41.51616669	1.0
3	-91.03599548	-0.4390000105	-18.65100098	-4.85633707	-7.240549088	42.09047699	1.0
[RightHandRing2]
1	-31.54000092	0	0	-0.3922721148	-2.651330948	23.79539299	1.0
2	-31.54000092	0	0	-0.3949298859	-2.657996178	23.86790276	1.0
3	-31.54000092	0	0	-0.3980278075	-2.665790558	23.95246696	1.0
[RightHandRing3]
1	-29.37700081	0	0	-0.1935988516	-0.1425013989	20.21568108	1.0
2	-29.37700081	0	0	-0.1954295039	-0.1495261788	20.28865623	1.0
3	-29.37700081	0	0	-0.1975886375	-0.1578038782	20.37443352	1.0
[RightHandRing4]
1	-26.47500038	0	0	0	0	0	1.0
2	-26.47500038	0	0	0	0	0	1.0
3	-26.47500038	0	0	0	0	0	1.0
[RightHandMiddle1]
1	-95.32500458	0	0	-2.422514439	-7.779736996	23.22126961	1.0
2	-95.32500458	0	0	-2.500079632	-6.856982708	23.9098835	1.0
3	-95.32500458	0	0	-2.587313175	-5.882200718	24.68494225	1.0
[RightHandMiddle2]
1	-36.98199844	0	0	-1.757565141	-4.153299332	38.0441246	1.0
2	-36.98199844	0	0	-1.758812785	-4.154450417	38.06097412	1.0
3	-36.98199844	0	0	-1.759772062	-4.15534687	38.07395172	1.0
[RightHandMiddle3]
1	-29.50900078	0	0	-0.8803570271	-3.046346664	31.08452415	1.0
2	-29.50900078	0	0	-0.880987823	-3.047342539	31.09632492	1.0
3	-29.50900078	0	0	-0.8813593984	-3.047929764	31.10345078	1.0
[RightHandMiddle4]
1	-28.3390007	0	0.0009999999311	0	0	0	1.0
2	-28.3390007	0	0.0009999999311	0	0	0	1.0
3	-28.3390007	0	0.0009999999311	0	0	0	1.0
[RightHandIndex1]
1	-91.08300018	-5.167999744	22.60099792	-0.7670755982	0.9684510231	10.75974941	1.0
2	-91.08300018	-5.167999744	22.60099792	-0.7756130695	1.412379265	11.00924492	1.0
3	-91.08300018	-5.167999744	22.60099792	-0.8128964901	1.780660033	11.53257561	1.0
[RightHandIndex2]
1	-36.76399994	0	0	-0.9562197924	-3.30560112	26.75667381	1.0
2	-36.76399994	0	0	-0.9576410055	-3.307694912	26.78139687	1.0
3	-36.76399994	0	0	-0.946557343	-3.291567802	26.5886631	1.0
[RightHandIndex3]
1	-28.83100128	0	0	-0.3358530402	-0.505181551	17.43585777	1.0
2	-28.83100128	0	0	-0.3365977108	-0.5075461864	17.46055031	1.0
3	-28.83100128	0	0	-0.3308221698	-0.4890930951	17.26835442	1.0
[RightHandIndex4]
1	-23.92700005	0	0	0	0	0	1.0
2	-23.92700005	0	0	0	0	0	1.0
3	-23.92700005	0	0	0	0	0	1.0
[RightHandThumb1]
1	-24.64799881	-15.72700024	26.82600021	14.45789242	-3.876233578	-18.62080002	1.0
2	-24.64799881	-15.72700024	26.82600021	14.03652	-3.638059139	-18.76752281	1.0
3	-24.64799881	-15.72700024	26.82600021	14.0479908	-2.639621973	-17.94576263	1.0
[RightHandThumb2]
1	-32.29800034	-18.64699936	18.64699936	7.143248081	-3.743356228	-13.83633804	1.0
2	-32.29800034	-18.64699936	18.64699936	6.795039654	-4.310577869	-13.66949463	1.0
3	-32.29800034	-18.64699936	18.64699936	6.033108234	-4.879012108	-13.77777576	1.0
[RightHandThumb3]
1	-26.52600098	-15.31399918	15.31399918	-12.58294582	9.309991837	7.135955811	1.0
2	-26.52600098	-15.31399918	15.31399918	-12.64499664	9.61662674	7.025752544	1.0
3	-26.52600098	-15.31399918	15.31399918	-12.69817924	9.87877655	6.931619167	1.0
[RightHandThumb4]
1	-19.54599953	-11.28499985	11.28499985	0	0	0	1.0
2	-19.54599953	-11.28499985	11.28499985	0	0	0	1.0
3	-19.54599953	-11.28499985	11.28499985	0	0	0	1.0
[LeftUpLeg]
1	82.07800293	-67.51699829	-15.99599934	-22.47949219	0.3807500899	3.43403244	1.0
2	82.07800293	-67.51699829	-15.99599934	-28.73261833	-1.291175604	0.4630190432	1.0
3	82.07800293	-67.51699829	-15.99599934	-32.40682983	-1.651872158	-1.388240337	1.0
[LeftLeg]
1	0	-443.7049866	2.845999956	63.99869537	-5.313836098	4.907312393	1.0
2	0	-443.7049866	2.845999956	54.82690811	-2.872364283	7.207889557	1.0
3	0	-443.7049866	2.845999956	41.61280441	0.1260279268	7.452172756	1.0
[LeftFoot]
1	0	-444.2789917	-29.8219986	1.47729516	0.2556284666	-1.486243129	1.0
2	0	-444.2789917	-29.8219986	-1.817270041	0.6301499009	-3.74807477	1.0
3	0	-444.2789917	-29.8219986	-2.073277473	0.6312586069	-3.089702606	1.0
[LeftToeBase]
1	0	-87.28699493	107.1060028	-1.567190886	-1.972701511e-06	-6.132534054e-07	1.0
2	0	-87.28699493	107.1060028	-0.4283524454	-1.373486725e-06	-1.191490469e-06	1.0
3	0	-87.28699493	107.1060028	-0.1745345891	-2.884665491e-06	3.140596903e-07	1.0
[RightUpLeg]
1	-82.07800293	-67.51699829	-15.99599934	-10.65749836	-11.11286545	11.55258656	1.0
2	-82.07800293	-67.51699829	-15.99599934	-7.204360485	-12.04502964	9.888557434	1.0
3	-82.07800293	-67.51699829	-15.99599934	-3.955884218	-12.88071823	7.195829391	1.0
[RightLeg]
1	0	-443.7049866	2.861999989	17.19344711	1.856535196	-1.397889853	1.0
2	0	-443.7049866	2.861999989	16.82937813	2.064962387	-1.790887475	1.0
3	0	-443.7049866	2.861999989	17.438097	4.717572212	-1.16272378	1.0
[RightFoot]
1	0	-444.2770081	-29.83799934	-7.32722187	-5.473438263	-4.289471149	1.0
2	0	-444.2770081	-29.83799934	-9.990185738	-2.590098381	-3.961054325	1.0
3	0	-444.2770081	-29.83799934	-14.19682407	-0.4916196465	-3.537383318	1.0
[RightToeBase]
1	0	-87.28699493	107.1060028	-2.773169756	-2.467665126e-06	-1.306089075e-06	1.0
2	0	-87.28699493	107.1060028	-2.560527325	-4.225719579e-07	1.217410812e-07	1.0
3	0	-87.28699493	107.1060028	-2.3929317	2.601696565e-07	9.453681287e-07	1.0
[EndOfFile]
